<svg width="96px" height="48px" xmlns="http://www.w3.org/2000/svg">
    <g>
        <path d="M8.395 8.395h30.996v30.996H8.395z"/>
        <path d="M35.946 0v5.166h6.888v6.673H48V0zM5.166 5.166h6.673V0H0v11.839h5.166zM42.834 42.834h-6.888V48H48V35.946h-5.166zM5.166 35.946H0V48h11.839v-5.166H5.166z"/>
    </g>
    <g>
        <path d="M0 29.9l19.084-11.788L0 6.325z"/>
        <path d="M28.916 18.112L48 29.9V6.325L28.916 18.112zm15.058 4.425l-7.163-4.425 7.163-4.424v8.849z" fill-rule="nonzero"/>
        <path d="M21.398 8.05h5.205v5.175h-5.205zM21.398 0h5.205v5.175h-5.205zM21.398 16.1h5.205v5.175h-5.205zM21.398 23.575h5.205v5.175h-5.205zM21.398 31.625h5.205V36.8h-5.205z"/>
    </g>
</svg>
